<svg width="67" height="67" viewBox="0 0 67 67" fill="none" xmlns="http://www.w3.org/2000/svg">
<circle cx="33.5" cy="33.5" r="33.5" fill="#E7E6E6"/>
<path fill-rule="evenodd" clip-rule="evenodd" d="M18 24.5073V41.4928C18 45.6389 21.3611 49 25.5072 49H42.4928C46.6389 49 50 45.6389 50 41.4928V24.5073C50 20.3611 46.6389 17 42.4927 17H25.5073C21.3611 17 18 20.3611 18 24.5073ZM20.9408 25.1567C20.9408 22.276 23.276 19.9408 26.1567 19.9408H41.8434C44.724 19.9408 47.0592 22.276 47.0592 25.1566V40.8434C47.0592 43.724 44.724 46.0592 41.8434 46.0592H26.1567C23.276 46.0592 20.9408 43.724 20.9408 40.8433V25.1567ZM29.4809 33C29.4809 35.4918 31.5082 37.5191 34 37.5191C36.4918 37.5191 38.5191 35.4918 38.5191 33C38.5191 30.5082 36.4918 28.4809 34 28.4809C31.5082 28.4809 29.4809 30.5082 29.4809 33ZM26.8212 33C26.8212 29.0415 30.0415 25.8212 34 25.8212C37.9585 25.8212 41.1788 29.0415 41.1788 33C41.1788 36.9585 37.9585 40.1788 34 40.1788C30.0415 40.1788 26.8212 36.9585 26.8212 33ZM42.229 23.0531C43.2602 23.0531 44.096 23.889 44.096 24.9201C44.096 25.9513 43.2602 26.7872 42.229 26.7872C41.1979 26.7872 40.362 25.9513 40.362 24.9201C40.362 23.889 41.1979 23.0531 42.229 23.0531Z" fill="#202323"/>
</svg>
