<svg width="67" height="67" viewBox="0 0 67 67" fill="none" xmlns="http://www.w3.org/2000/svg">
<circle cx="33.5" cy="33.5" r="33.5" fill="#E7E6E6"/>
<path d="M22 25C19.7947 25 18 23.2053 18 21C18 18.7947 19.7947 17 22 17C24.2053 17 26 18.7947 26 21C26 23.2053 24.2053 25 22 25ZM22 18.3333C20.5293 18.3333 19.3333 19.5293 19.3333 21C19.3333 22.4707 20.5293 23.6667 22 23.6667C23.4707 23.6667 24.6667 22.4707 24.6667 21C24.6667 19.5293 23.4707 18.3333 22 18.3333ZM25.3333 49H18.6667C18.4899 49 18.3203 48.9298 18.1953 48.8047C18.0702 48.6797 18 48.5101 18 48.3333V28.3333C18 28.1565 18.0702 27.987 18.1953 27.8619C18.3203 27.7369 18.4899 27.6667 18.6667 27.6667H25.3333C25.5101 27.6667 25.6797 27.7369 25.8047 27.8619C25.9298 27.987 26 28.1565 26 28.3333V48.3333C26 48.5101 25.9298 48.6797 25.8047 48.8047C25.6797 48.9298 25.5101 49 25.3333 49ZM19.3333 47.6667H24.6667V29H19.3333V47.6667ZM49.3333 49H42.6667C42.4899 49 42.3203 48.9298 42.1953 48.8047C42.0702 48.6797 42 48.5101 42 48.3333V36.3333C42 34.82 41.3693 33.684 40.268 33.2187C39.1307 32.736 37.7427 33.032 36.6667 33.96V48.3333C36.6667 48.5101 36.5964 48.6797 36.4714 48.8047C36.3464 48.9298 36.1768 49 36 49H29.3333C29.1565 49 28.987 48.9298 28.8619 48.8047C28.7369 48.6797 28.6667 48.5101 28.6667 48.3333V28.3333C28.6667 28.1565 28.7369 27.987 28.8619 27.8619C28.987 27.7369 29.1565 27.6667 29.3333 27.6667H36C36.1478 27.6667 36.2913 27.7158 36.4081 27.8063C36.525 27.8968 36.6084 28.0236 36.6453 28.1667C38.784 26.628 42.3467 25.772 45.196 26.748C47.3467 27.4853 49.924 29.512 50 34.992V48.3347C49.9996 48.5112 49.9293 48.6805 49.8043 48.8052C49.6793 48.9299 49.5099 49 49.3333 49ZM43.3333 47.6667H48.6667V35C48.616 31.2867 47.2653 28.8653 44.764 28.0093C41.6573 26.9453 37.7427 28.552 36.52 30.0827C36.4333 30.1895 36.3157 30.267 36.1833 30.3045C36.0509 30.3419 35.9102 30.3376 35.7803 30.2921C35.6505 30.2466 35.5378 30.1621 35.4578 30.0501C35.3778 29.9382 35.3344 29.8043 35.3333 29.6667V29H30V47.6667H35.3333V33.6667C35.3333 33.5777 35.3512 33.4896 35.3857 33.4076C35.4203 33.3257 35.471 33.2514 35.5347 33.1893C37.0253 31.7413 39.0907 31.2747 40.7867 31.9907C42.4053 32.676 43.3333 34.2587 43.332 36.3333L43.3333 47.6667Z" fill="#202323"/>
</svg>
